<svg xmlns="http://www.w3.org/2000/svg" viewBox="0 0 100 80">
  <!-- Center petal -->
  <path d="M50 12 C46 22 46 32 50 38 C54 32 54 22 50 12Z" fill="#C2185B"/>
  <!-- Left inner petal -->
  <path d="M50 38 C42 33 33 35 29 42 C37 46 45 43 50 38Z" fill="#D81B60"/>
  <!-- Right inner petal -->
  <path d="M50 38 C58 33 67 35 71 42 C63 46 55 43 50 38Z" fill="#D81B60"/>
  <!-- Left outer petal -->
  <path d="M29 42 C20 37 12 41 12 48 C21 50 26 46 29 42Z" fill="#E91E8C" opacity="0.75"/>
  <!-- Right outer petal -->
  <path d="M71 42 C80 37 88 41 88 48 C79 50 74 46 71 42Z" fill="#E91E8C" opacity="0.75"/>
  <!-- Heart center -->
  <path d="M50 33 C50 33 44 28 41 31 C38 34 41 39 50 45 C59 39 62 34 59 31 C56 28 50 33 50 33Z" fill="#C2185B"/>
  <!-- Base arc -->
  <path d="M20 52 Q50 59 80 52" stroke="#D81B60" stroke-width="2.5" stroke-linecap="round" fill="none"/>
</svg>
